<svg width="28" height="28" viewBox="0 0 28 28" fill="none" xmlns="http://www.w3.org/2000/svg">
<path d="M19.834 8.16602H15.1673V10.4993H19.834C21.759 10.4993 23.334 12.0743 23.334 13.9993C23.334 15.9243 21.759 17.4993 19.834 17.4993H15.1673V19.8327H19.834C23.054 19.8327 25.6673 17.2193 25.6673 13.9993C25.6673 10.7793 23.054 8.16602 19.834 8.16602ZM12.834 17.4993H8.16732C6.24232 17.4993 4.66732 15.9243 4.66732 13.9993C4.66732 12.0743 6.24232 10.4993 8.16732 10.4993H12.834V8.16602H8.16732C4.94732 8.16602 2.33398 10.7793 2.33398 13.9993C2.33398 17.2193 4.94732 19.8327 8.16732 19.8327H12.834V17.4993ZM9.33398 12.8327H18.6673V15.166H9.33398V12.8327Z" fill="white"/>
</svg>
