<svg width="32" height="32" viewBox="0 0 32 32" fill="none" xmlns="http://www.w3.org/2000/svg">
<g clip-path="url(#clip0)">
<path d="M29.4092 13.1209C28.282 7.86533 24.1347 3.71803 18.8791 2.59073C18.7264 1.13689 17.4935 0 15.9999 0C14.5063 0 13.2735 1.13689 13.1208 2.59073C7.86534 3.71803 3.71803 7.86533 2.59073 13.1209C1.13689 13.2736 0 14.5065 0 16.0001C0 17.4935 1.13689 18.7263 2.59073 18.879C3.71803 24.1346 7.86525 28.2821 13.1209 29.4093C13.2736 30.8631 14.5065 31.9999 16.0001 31.9999C17.4937 31.9999 18.7265 30.863 18.8792 29.4093C24.1348 28.282 28.2821 24.1346 29.4094 18.879C30.8632 18.7263 32.0001 17.4935 32.0001 16C32 14.5064 30.8631 13.2736 29.4092 13.1209ZM15.9999 0.990463C17.0519 0.990463 17.9047 1.84317 17.9047 2.89526C17.9047 3.94726 17.0519 4.79997 15.9999 4.79997C14.9479 4.79997 14.0952 3.94726 14.0952 2.89526C14.0952 1.84317 14.948 0.990463 15.9999 0.990463ZM0.990464 16.0001C0.990464 14.9481 1.84317 14.0953 2.89526 14.0953C3.94726 14.0953 4.79997 14.9482 4.79997 16.0001C4.79997 17.052 3.94726 17.9047 2.89526 17.9047C1.84317 17.9047 0.990464 17.052 0.990464 16.0001ZM16 31.0095C14.948 31.0095 14.0952 30.1567 14.0952 29.1048C14.0952 28.0528 14.9481 27.1999 16 27.1999C17.052 27.1999 17.9047 28.0527 17.9047 29.1048C17.9048 30.1567 17.052 31.0095 16 31.0095ZM18.7464 28.1905C18.3627 27.0408 17.277 26.2095 16 26.2095C14.723 26.2095 13.6373 27.0408 13.2535 28.1905C8.56453 27.1347 4.86526 23.4354 3.80951 18.7463C4.95907 18.3626 5.79043 17.2769 5.79043 16.0001C5.79043 14.7231 4.95907 13.6373 3.80951 13.2536C4.86535 8.56461 8.56453 4.86534 13.2535 3.80959C13.6373 4.95915 14.723 5.79051 15.9999 5.79051C17.2769 5.79051 18.3627 4.95915 18.7464 3.80959C23.4354 4.86534 27.1347 8.56461 28.1904 13.2536C27.0409 13.6373 26.2095 14.7231 26.2095 16C26.2095 17.2769 27.0409 18.3627 28.1904 18.7464C27.1347 23.4354 23.4355 27.1347 18.7464 28.1905ZM29.1048 17.9047C28.0528 17.9047 27.2001 17.0519 27.2001 16C27.2001 14.948 28.0528 14.0952 29.1048 14.0952C30.1569 14.0952 31.0096 14.948 31.0096 16C31.0096 17.0519 30.1569 17.9047 29.1048 17.9047Z" fill="#328DF5"/>
<path d="M20.9517 11.1108C20.9517 9.6115 18.4 8.80273 15.9994 8.80273C13.5987 8.80273 11.0471 9.6115 11.0471 11.111L11.0483 12.3L11.0509 12.3255C11.1077 12.6006 11.2548 12.8487 11.4706 13.0696C11.2018 13.3534 11.047 13.68 11.047 14.0485L11.0482 15.2379L11.0508 15.2631C11.1077 15.5383 11.2548 15.7864 11.4705 16.0076C11.2017 16.291 11.047 16.6178 11.047 16.9864L11.0481 18.1754L11.0507 18.201C11.1076 18.4762 11.2547 18.7243 11.4704 18.9454C11.2016 19.2287 11.0469 19.5554 11.0469 19.9242L11.048 21.1136L11.0506 21.1387C11.3291 22.4879 13.7508 23.1938 15.999 23.1938C18.2473 23.1938 20.673 22.4879 20.9515 21.1387L20.9513 19.9243C20.9513 19.5562 20.7969 19.2305 20.5292 18.9479C20.7462 18.7261 20.8946 18.4771 20.9515 18.2011L20.9513 16.9864C20.9513 16.6185 20.7969 16.293 20.5292 16.0101C20.7462 15.7882 20.8946 15.5396 20.9515 15.2633L20.9513 14.0487C20.9513 13.6809 20.7969 13.3551 20.5292 13.0724C20.7462 12.8506 20.8946 12.6016 20.9515 12.3256L20.9517 11.1108ZM15.9994 21.1413C13.6044 21.1413 12.1382 20.3532 12.1382 19.9242C12.1382 19.8203 12.2253 19.6961 12.3886 19.5665C13.3559 20.0219 14.706 20.2562 15.9994 20.2562C17.2918 20.2562 18.643 20.0219 19.6112 19.5674C19.7738 19.6962 19.8606 19.8206 19.8606 19.9241C19.8606 20.3532 18.3945 21.1413 15.9994 21.1413ZM15.9994 18.2037C13.6044 18.2037 12.1382 17.4156 12.1382 16.9862C12.1382 16.8826 12.2253 16.758 12.3886 16.6288C13.3559 17.084 14.706 17.3185 15.9994 17.3185C17.2918 17.3185 18.643 17.0843 19.6112 16.6293C19.7738 16.7585 19.8606 16.8827 19.8606 16.9861C19.8606 17.4156 18.3945 18.2037 15.9994 18.2037ZM15.9994 15.2656C13.6044 15.2656 12.1382 14.4775 12.1382 14.0485C12.1382 13.9449 12.2253 13.8203 12.3886 13.6909C13.3559 14.1465 14.706 14.3805 15.9994 14.3805C17.2918 14.3805 18.643 14.1467 19.6112 13.6918C19.7738 13.8208 19.8606 13.9453 19.8606 14.0485C19.8606 14.4776 18.3945 15.2656 15.9994 15.2656ZM15.9994 12.3279C13.6044 12.3279 12.1382 11.5399 12.1382 11.1108C12.1382 10.6819 13.6044 9.89376 15.9994 9.89376C18.3945 9.89376 19.8606 10.6819 19.8606 11.1108C19.8606 11.5399 18.3945 12.3279 15.9994 12.3279Z" fill="#328DF5"/>
</g>
<defs>
<clipPath id="clip0">
<rect width="32" height="32" fill="white"/>
</clipPath>
</defs>
</svg>
