<svg id="Icons" height="512" viewBox="0 0 74 74" width="512" xmlns="http://www.w3.org/2000/svg"><path d="m47.3 30.825h-20.6a4.3 4.3 0 0 1 -4.3-4.3v-18.898a4.3 4.3 0 0 1 4.3-4.3h20.6a4.3 4.3 0 0 1 4.3 4.3v18.9a4.3 4.3 0 0 1 -4.3 4.298zm-20.6-25.497a2.3 2.3 0 0 0 -2.3 2.3v18.9a2.3 2.3 0 0 0 2.3 2.3h20.6a2.3 2.3 0 0 0 2.3-2.3v-18.901a2.3 2.3 0 0 0 -2.3-2.3z"/><path d="m11.075 54.618a1 1 0 0 1 -1-1v-9.3a3.129 3.129 0 0 1 3.125-3.118h47.6a3.129 3.129 0 0 1 3.125 3.125v9.2a1 1 0 1 1 -2 0v-9.2a1.127 1.127 0 0 0 -1.125-1.125h-47.6a1.127 1.127 0 0 0 -1.125 1.125v9.3a1 1 0 0 1 -1 .993z"/><path d="m37 43.2a1 1 0 0 1 -1-1v-12.375a1 1 0 0 1 2 0v12.375a1 1 0 0 1 -1 1z"/><path d="m62.923 70.672a9.077 9.077 0 1 1 9.077-9.072 9.087 9.087 0 0 1 -9.077 9.072zm0-16.154a7.077 7.077 0 1 0 7.077 7.082 7.085 7.085 0 0 0 -7.077-7.082z"/><path d="m11.077 70.672a9.077 9.077 0 1 1 9.077-9.072 9.087 9.087 0 0 1 -9.077 9.072zm0-16.154a7.077 7.077 0 1 0 7.077 7.082 7.085 7.085 0 0 0 -7.077-7.082z"/></svg>