<svg width="29" height="32" viewBox="0 0 29 32" fill="none" xmlns="http://www.w3.org/2000/svg">
<path d="M14.0625 9.4375C20.8354 9.4375 28.125 7.9707 28.125 4.75C28.125 1.5293 20.8354 0 14.0625 0C7.28955 0 0 1.5293 0 4.75C0 7.9707 7.28955 9.4375 14.0625 9.4375Z" fill="#F1964C"/>
<path d="M14.0625 11.3127C10.1848 11.3127 3.00146 10.6885 0.0375976 8.21899C0.0187988 8.21899 0.0187988 8.2002 0 8.2002C0 11.9802 7.38135 12.8438 11.25 13.094V14.969C7.875 14.7627 2.73755 14.0876 0 11.9878V12.2502C0 15.9626 9.2063 16.9377 14.0625 16.9377C18.9187 16.9377 28.125 15.9626 28.125 12.2502V8.2002C24.5969 10.7224 18.3723 11.3127 14.0625 11.3127ZM15 15.0627H13.125V13.1877H15V15.0627Z" fill="#F1964C"/>
<path d="M14.0625 18.8125C10.197 18.8125 2.96313 18.175 0.0375976 15.7375C0.0187988 15.7375 0.0187988 15.7188 0 15.7188C0 19.4741 7.44458 20.3477 11.25 20.5938V22.4688C7.875 22.2625 2.73755 21.5874 0 19.4875C0 23.7439 9.94214 24.4375 14.0625 24.4375C18.9187 24.4375 28.125 23.4624 28.125 19.75V15.7188C24.614 18.2258 18.2822 18.8125 14.0625 18.8125ZM15 22.5625H13.125V20.6875H15V22.5625Z" fill="#F1964C"/>
<path d="M0.0375976 23.2375C0.0187988 23.2375 0.0187988 23.2188 0 23.2188C0 26.9741 7.44458 27.8477 11.25 28.0938V29.9688C7.875 29.7625 2.73755 29.0874 0 26.9875C0 31.2493 9.84009 32 14.0625 32C20.8313 32 28.125 30.4749 28.125 27.25V23.2188C24.375 26.125 16.1062 26.3125 14.0625 26.3125C12.0188 26.3125 3.8064 26.125 0.0375976 23.2375ZM15 30.0625H13.125V28.1875H15V30.0625Z" fill="#F1964C"/>
</svg>
