<svg width="32" height="32" viewBox="0 0 32 32" fill="none" xmlns="http://www.w3.org/2000/svg">
<path d="M29.741 4C29.741 1.79077 23.6011 0 16.0269 0C8.45264 0 2.3125 1.79077 2.3125 4C2.3125 6.20923 8.45264 8 16.0269 8C23.6011 8 29.741 6.20923 29.741 4Z" fill="#D9EEFF"/>
<path d="M16.0269 16C23.5981 16 29.741 14.2114 29.741 12V4C29.741 6.21143 23.5981 8 16.0269 8C8.45532 8 2.3125 6.21143 2.3125 4V12C2.3125 14.2114 8.45532 16 16.0269 16Z" fill="#A4CEFC"/>
<path d="M16.0269 24C23.5981 24 29.741 22.2114 29.741 20V12C29.741 14.2114 23.5981 16 16.0269 16C8.45532 16 2.3125 14.2114 2.3125 12V20C2.3125 22.2114 8.45532 24 16.0269 24Z" fill="#7DB8F8"/>
<path d="M29.741 20C29.741 22.2114 23.5981 24 16.0269 24C8.45532 24 2.3125 22.2114 2.3125 20V28C2.3125 30.2114 8.45532 32 16.0269 32C23.5981 32 29.741 30.2114 29.741 28V20Z" fill="#5786C4"/>
</svg>
