<svg width="32" height="28" viewBox="0 0 32 28" fill="none" xmlns="http://www.w3.org/2000/svg">
<path d="M31.7609 7.38275C31.5831 7.18412 31.3291 7.07062 31.0625 7.07062H27.4048V3.80625C27.4048 3.2885 26.9851 2.86875 26.4673 2.86875H10.3774V1.75C10.3774 1.23225 9.95769 0.8125 9.43994 0.8125H0.9375C0.41975 0.8125 0 1.23225 0 1.75L0.001125 26.2471C-0.0005625 26.4632 0.072 26.6752 0.210938 26.8456C0.389 27.0639 0.65575 27.1906 0.9375 27.1906H29.044C29.5219 27.1906 29.9233 26.8312 29.9758 26.3562L31.9943 8.11112C32.0236 7.84625 31.9387 7.58137 31.7609 7.38275ZM1.875 2.6875H8.50244V3.80625C8.50244 4.324 8.92219 4.74375 9.43994 4.74375H25.5298V7.07062H4.68775C4.24275 7.07062 3.85906 7.38344 3.7695 7.81938L1.875 17.0361V2.6875ZM28.2045 25.3157H2.08725L5.45213 8.94569H30.0156L28.2045 25.3157Z" fill="#2387FF"/>
<path d="M2 25.5L5.5 9H30L28 25.5H2Z" fill="#57A3FF" stroke="#328DF5" stroke-opacity="0.76"/>
</svg>
