<svg width="32" height="28" viewBox="0 0 32 28" fill="none" xmlns="http://www.w3.org/2000/svg">
<path d="M31.7609 7.38177C31.5831 7.18315 31.3291 7.06965 31.0625 7.06965H27.4048V3.80527C27.4048 3.28752 26.9851 2.86777 26.4673 2.86777H10.3774V1.74902C10.3774 1.23127 9.95769 0.811523 9.43994 0.811523H0.9375C0.41975 0.811523 0 1.23127 0 1.74902L0.001125 26.2461C-0.0005625 26.4622 0.072 26.6743 0.210938 26.8446C0.389 27.063 0.65575 27.1896 0.9375 27.1896H29.044C29.5219 27.1896 29.9233 26.8302 29.9758 26.3552L31.9943 8.11015C32.0236 7.84527 31.9387 7.5804 31.7609 7.38177ZM1.875 2.68652H8.50244V3.80527C8.50244 4.32302 8.92219 4.74277 9.43994 4.74277H25.5298V7.06965H4.68775C4.24275 7.06965 3.85906 7.38246 3.7695 7.8184L1.875 17.0351V2.68652ZM28.2045 25.3148H2.08725L5.45213 8.94471H30.0156L28.2045 25.3148Z" fill="#F1964C"/>
<path d="M2 25.499L5.5 8.99902H30L28 25.499H2Z" fill="#F1964C" fill-opacity="0.65" stroke="#F08A40" stroke-opacity="0.76"/>
</svg>
