<svg width="24" height="24" viewBox="0 0 24 24" fill="none" xmlns="http://www.w3.org/2000/svg">
<path d="M20.4515 5.99953L20.9415 4.93953L22.0015 4.44953C22.3915 4.26953 22.3915 3.71953 22.0015 3.53953L20.9415 3.04953L20.4515 1.99953C20.2715 1.60953 19.7215 1.60953 19.5415 1.99953L19.0515 3.05953L18.0015 3.54953C17.6115 3.72953 17.6115 4.27953 18.0015 4.45953L19.0615 4.94953L19.5515 5.99953C19.7215 6.38953 20.2815 6.38953 20.4515 5.99953Z" fill="white"/>
<path d="M8.95148 5.99953L9.44148 4.93953L10.5015 4.44953C10.8915 4.26953 10.8915 3.71953 10.5015 3.53953L9.44148 3.05953L8.95148 1.99953C8.78148 1.60953 8.22148 1.60953 8.05148 1.99953L7.56148 3.05953L6.50148 3.54953C6.11148 3.72953 6.11148 4.27953 6.50148 4.45953L7.56148 4.94953L8.05148 5.99953C8.22148 6.38953 8.78148 6.38953 8.95148 5.99953Z" fill="white"/>
<path d="M19.5515 13.4988L19.0615 14.5588L18.0015 15.0488C17.6115 15.2288 17.6115 15.7788 18.0015 15.9588L19.0615 16.4488L19.5515 17.5088C19.7315 17.8988 20.2815 17.8988 20.4615 17.5088L20.9515 16.4488L22.0015 15.9488C22.3915 15.7688 22.3915 15.2188 22.0015 15.0388L20.9415 14.5488L20.4515 13.4888C20.2815 13.1088 19.7215 13.1088 19.5515 13.4988Z" fill="white"/>
<path d="M17.7105 9.11859L14.8805 6.28859C14.4905 5.89859 13.8605 5.89859 13.4705 6.28859L2.29055 17.4586C1.90055 17.8486 1.90055 18.4786 2.29055 18.8686L5.12055 21.6986C5.51055 22.0886 6.14055 22.0886 6.53055 21.6986L17.7005 10.5286C18.1005 10.1486 18.1005 9.50859 17.7105 9.11859ZM14.2105 11.2086L12.8005 9.79859L14.1805 8.41859L15.5905 9.82859L14.2105 11.2086Z" fill="white"/>
</svg>
