<svg width="24" height="24" viewBox="0 0 24 24" fill="none" xmlns="http://www.w3.org/2000/svg">
<path d="M12.0907 2.90995C10.0807 0.899954 7.07074 0.489954 4.65074 1.66995L8.28074 5.29995C8.67074 5.68995 8.67074 6.31995 8.28074 6.70995L6.69074 8.29995C6.30074 8.69995 5.67074 8.69995 5.28074 8.29995L1.65074 4.66995C0.480736 7.09995 0.890736 10.09 2.90074 12.1C4.76074 13.96 7.48074 14.45 9.79074 13.58L17.7507 21.54C18.7807 22.57 20.4407 22.57 21.4607 21.54C22.4907 20.51 22.4907 18.85 21.4607 17.83L13.5407 9.89995C14.4607 7.55995 13.9807 4.79995 12.0907 2.90995Z" fill="white"/>
</svg>
