<svg width="66" height="66" viewBox="0 0 66 66" fill="none" xmlns="http://www.w3.org/2000/svg">
<path d="M59.7469 23.3904L64.2092 63.004C64.3514 64.2665 63.3636 65.3719 62.0931 65.3719H6.72167C5.56563 65.3719 4.59394 64.5036 4.46452 63.3548L0.0127388 23.8352C-0.120035 22.6569 0.802032 21.6252 1.98771 21.6252H57.7718C58.7834 21.6252 59.6336 22.385 59.7469 23.3904Z" fill="#F1A42F"/>
<path d="M61.6156 28.0424C61.2337 27.2165 60.4005 26.6388 59.4261 26.6388H31.5379H28.5893L25.6782 19.7683H23.6078L23.6037 19.7591C23.2189 18.8861 22.356 18.3218 21.402 18.3192L8.35213 18.2717C7.0494 18.2681 5.97896 19.299 5.93346 20.6009L4.45258 63.021C4.40773 64.3058 5.43704 65.3718 6.72262 65.3718H58.5163C59.4289 65.3718 60.2092 64.7958 60.5111 63.9834H63.0424V28.0424H61.6156Z" fill="#F4CB8D"/>
<path d="M21.4014 18.3193C22.3554 18.3219 23.2183 18.8863 23.6031 19.7592L26.3371 25.9613C26.5186 26.3731 26.9262 26.6389 27.3763 26.6389H31.5373C31.0873 26.6389 30.6795 26.3731 30.498 25.9613L27.764 19.7592C27.3793 18.8863 26.5164 18.3219 25.5623 18.3193H21.4014Z" fill="#F08A40"/>
<path d="M63.5863 26.6389H59.4253C60.7912 26.6389 61.885 27.7715 61.8373 29.1366L60.6437 63.3166C60.6037 64.4631 59.6628 65.3718 58.5156 65.3718H62.6766C63.8237 65.3718 64.7647 64.4631 64.8048 63.3166L65.9984 29.1366C66.0458 27.7715 64.9522 26.6389 63.5863 26.6389Z" fill="#F08A40"/>
<path d="M53.4343 14.7872L45.1608 2.41553H43.3372L35.4796 13.985C34.8231 14.9517 35.5154 16.2589 36.684 16.2589H39.4611V35.6657C39.4611 36.4699 40.113 37.1216 40.917 37.1216H45.7573C46.4284 37.1216 46.9919 36.667 47.1604 36.0492H49.2842V16.2588H49.9903C50.8519 16.2588 51.4539 15.548 51.4478 14.787H53.4343V14.7872Z" fill="#0055A3"/>
<path d="M54.9772 13.9849L46.4326 1.40401C45.855 0.553482 44.6015 0.553482 44.0239 1.40401L43.3369 2.4154L51.1945 13.9849C51.851 14.9515 51.1587 16.2588 49.9902 16.2588H47.213V35.6656C47.213 36.4697 46.5611 37.1215 45.7571 37.1215H49.5398C50.3439 37.1215 50.9956 36.4696 50.9956 35.6656V16.2588H53.7728C54.9413 16.2588 55.6337 14.9515 54.9772 13.9849Z" fill="#004281"/>
</svg>
