<svg width="32" height="32" viewBox="0 0 32 32" fill="none" xmlns="http://www.w3.org/2000/svg">
<g clip-path="url(#clip0)">
<path d="M20.6194 0.184815C20.4727 0.0302736 20.2715 -0.0625 20.063 -0.0625H7.57984C5.27637 -0.0625 3.375 1.8313 3.375 4.13453V27.7403C3.375 30.0438 5.27637 31.9376 7.57984 31.9376H24.5227C26.8262 31.9376 28.7276 30.0438 28.7276 27.7403V8.99636C28.7276 8.79543 28.6348 8.60231 28.5035 8.45534L20.6194 0.184815ZM20.8435 2.66602L26.1228 8.20802H22.691C21.6707 8.20802 20.8435 7.38869 20.8435 6.36842V2.66602ZM24.5227 30.3917H7.57984C6.13453 30.3917 4.9209 29.1937 4.9209 27.7403V4.13453C4.9209 2.68921 6.12671 1.4834 7.57984 1.4834H19.2976V6.36842C19.2976 8.2466 20.8128 9.75393 22.691 9.75393H27.1817V27.7403C27.1817 29.1937 25.9759 30.3917 24.5227 30.3917Z" fill="#328DF5"/>
<path d="M22.4116 25.0586H9.68897C9.26392 25.0586 8.91602 25.4063 8.91602 25.8315C8.91602 26.2566 9.26392 26.6045 9.68897 26.6045H22.4195C22.8445 26.6045 23.1924 26.2566 23.1924 25.8315C23.1924 25.4063 22.8445 25.0586 22.4116 25.0586Z" fill="#328DF5"/>
<path d="M12.0933 16.7405L15.2779 13.3162V21.7569C15.2779 22.1819 15.6258 22.5298 16.0509 22.5298C16.4762 22.5298 16.8238 22.1819 16.8238 21.7569V13.3162L20.0084 16.7405C20.1629 16.9026 20.3641 16.9878 20.5726 16.9878C20.7581 16.9878 20.9515 16.9182 21.0982 16.7791C21.4075 16.4854 21.4307 15.9983 21.137 15.6892L16.6075 10.8274C16.4605 10.6729 16.2596 10.5801 16.0433 10.5801C15.8267 10.5801 15.6258 10.6729 15.4791 10.8274L10.9495 15.6892C10.6558 15.9983 10.679 16.4929 10.9881 16.7791C11.3128 17.0728 11.7996 17.0496 12.0933 16.7405Z" fill="#328DF5"/>
</g>
<defs>
<clipPath id="clip0">
<rect width="32" height="32" fill="white"/>
</clipPath>
</defs>
</svg>
