<svg width="56" height="56" viewBox="0 0 56 56" fill="none" xmlns="http://www.w3.org/2000/svg">
<path d="M28 56C43.464 56 56 43.464 56 28C56 12.536 43.464 0 28 0C12.536 0 0 12.536 0 28C0 43.464 12.536 56 28 56Z" fill="#FFD05B"/>
<path d="M44.845 13.0088H14.9049C13.8466 13.0088 13.0088 13.8466 13.0088 14.9049V38.1426C13.0088 39.2009 13.8466 40.0387 14.9049 40.0387H44.845C45.9033 40.0387 46.7411 39.2009 46.7411 38.1426V14.8608C46.7411 13.8466 45.9033 13.0088 44.845 13.0088Z" fill="white"/>
<path d="M44.845 11.9941H14.9049C13.8466 11.9941 13.0088 12.8319 13.0088 13.8902V18.3878H46.7411V13.8902C46.7411 12.876 45.9033 11.9941 44.845 11.9941Z" fill="#FF7058"/>
<path d="M28.5286 20.2393H25.8389V22.929H28.5286V20.2393Z" fill="#E6E9EE"/>
<path d="M33.9085 20.2393H31.2188V22.929H33.9085V20.2393Z" fill="#E6E9EE"/>
<path d="M39.2884 20.2393H36.5986V22.929H39.2884V20.2393Z" fill="#E6E9EE"/>
<path d="M23.1937 25.1338H20.5039V27.8236H23.1937V25.1338Z" fill="#E6E9EE"/>
<path d="M28.5286 25.1338H25.8389V27.8236H28.5286V25.1338Z" fill="#E6E9EE"/>
<path d="M33.9085 25.1338H31.2188V27.8236H33.9085V25.1338Z" fill="#E6E9EE"/>
<path d="M39.2884 25.1338H36.5986V27.8236H39.2884V25.1338Z" fill="#E6E9EE"/>
<path d="M23.1937 30.0723H20.5039V32.762H23.1937V30.0723Z" fill="#E6E9EE"/>
<path d="M28.5286 30.0723H25.8389V32.762H28.5286V30.0723Z" fill="#E6E9EE"/>
<path d="M33.9085 30.0723H31.2188V32.762H33.9085V30.0723Z" fill="#E6E9EE"/>
<path d="M39.2884 30.0723H36.5986V32.762H39.2884V30.0723Z" fill="#E6E9EE"/>
<path d="M23.1937 34.9668H20.5039V37.6566H23.1937V34.9668Z" fill="#E6E9EE"/>
<path d="M28.5286 34.9668H25.8389V37.6566H28.5286V34.9668Z" fill="#E6E9EE"/>
<path d="M33.9085 34.9668H31.2188V37.6566H33.9085V34.9668Z" fill="#E6E9EE"/>
<path d="M18.8732 25.4863C13.2732 25.4863 8.73145 30.0281 8.73145 35.6281C8.73145 41.2281 13.2732 45.7698 18.8732 45.7698C24.4732 45.7698 29.0149 41.2281 29.0149 35.6281C29.0149 30.0281 24.4732 25.4863 18.8732 25.4863Z" fill="#84DBFF"/>
<path d="M18.8732 27.7793C14.552 27.7793 11.0244 31.3069 11.0244 35.6281C11.0244 39.9494 14.552 43.4769 18.8732 43.4769C23.1945 43.4769 26.7221 39.9494 26.7221 35.6281C26.678 31.3069 23.1945 27.7793 18.8732 27.7793Z" fill="white"/>
<path d="M18.5636 30.9989L18.2108 36.643C18.1668 36.9958 18.4313 37.3485 18.8282 37.3485C19.225 37.3485 19.4896 37.0399 19.4896 36.6871L19.1368 30.9989C19.1368 30.8667 19.0046 30.7344 18.8723 30.7344C18.6959 30.7785 18.6077 30.8667 18.5636 30.9989Z" fill="#2B3B4E"/>
<path d="M22.7517 34.8779L17.5927 35.2307C17.2399 35.2748 16.9754 35.5394 17.0195 35.848C17.0636 36.2008 17.3722 36.4212 17.725 36.3771L22.8399 35.363C22.9722 35.3189 23.0604 35.2307 23.0163 35.0984C22.9722 34.9661 22.884 34.8779 22.7517 34.8779Z" fill="#324A5E"/>
<path d="M18.8723 36.5551C19.3837 36.5551 19.7983 36.1405 19.7983 35.6291C19.7983 35.1177 19.3837 34.7031 18.8723 34.7031C18.3609 34.7031 17.9463 35.1177 17.9463 35.6291C17.9463 36.1405 18.3609 36.5551 18.8723 36.5551Z" fill="#FF7058"/>
<path d="M18.8732 29.6321C19.2141 29.6321 19.4905 29.3557 19.4905 29.0148C19.4905 28.6738 19.2141 28.3975 18.8732 28.3975C18.5322 28.3975 18.2559 28.6738 18.2559 29.0148C18.2559 29.3557 18.5322 29.6321 18.8732 29.6321Z" fill="#E6E9EE"/>
<path d="M18.8732 42.552C19.2141 42.552 19.4905 42.2756 19.4905 41.9347C19.4905 41.5938 19.2141 41.3174 18.8732 41.3174C18.5322 41.3174 18.2559 41.5938 18.2559 41.9347C18.2559 42.2756 18.5322 42.552 18.8732 42.552Z" fill="#E6E9EE"/>
<path d="M25.3107 36.0706C25.6516 36.0706 25.928 35.7942 25.928 35.4533C25.928 35.1123 25.6516 34.8359 25.3107 34.8359C24.9697 34.8359 24.6934 35.1123 24.6934 35.4533C24.6934 35.7942 24.9697 36.0706 25.3107 36.0706Z" fill="#E6E9EE"/>
<path d="M12.3908 36.0706C12.7317 36.0706 13.0081 35.7942 13.0081 35.4533C13.0081 35.1123 12.7317 34.8359 12.3908 34.8359C12.0498 34.8359 11.7734 35.1123 11.7734 35.4533C11.7734 35.7942 12.0498 36.0706 12.3908 36.0706Z" fill="#E6E9EE"/>
<path d="M23.4152 31.5286C23.7561 31.5286 24.0325 31.2522 24.0325 30.9113C24.0325 30.5703 23.7561 30.2939 23.4152 30.2939C23.0742 30.2939 22.7979 30.5703 22.7979 30.9113C22.7979 31.2522 23.0742 31.5286 23.4152 31.5286Z" fill="#E6E9EE"/>
<path d="M14.2872 40.6565C14.6282 40.6565 14.9046 40.3801 14.9046 40.0392C14.9046 39.6983 14.6282 39.4219 14.2872 39.4219C13.9463 39.4219 13.6699 39.6983 13.6699 40.0392C13.6699 40.3801 13.9463 40.6565 14.2872 40.6565Z" fill="#E6E9EE"/>
<path d="M23.4152 40.6565C23.7561 40.6565 24.0325 40.3801 24.0325 40.0392C24.0325 39.6983 23.7561 39.4219 23.4152 39.4219C23.0742 39.4219 22.7979 39.6983 22.7979 40.0392C22.7979 40.3801 23.0742 40.6565 23.4152 40.6565Z" fill="#E6E9EE"/>
<path d="M14.2872 31.5286C14.6282 31.5286 14.9046 31.2522 14.9046 30.9113C14.9046 30.5703 14.6282 30.2939 14.2872 30.2939C13.9463 30.2939 13.6699 30.5703 13.6699 30.9113C13.6699 31.2522 13.9463 31.5286 14.2872 31.5286Z" fill="#E6E9EE"/>
<path d="M38.406 16.6675C39.1609 16.6675 39.7729 16.0555 39.7729 15.3005C39.7729 14.5456 39.1609 13.9336 38.406 13.9336C37.6511 13.9336 37.0391 14.5456 37.0391 15.3005C37.0391 16.0555 37.6511 16.6675 38.406 16.6675Z" fill="white"/>
<path d="M21.3855 16.6675C22.1404 16.6675 22.7524 16.0555 22.7524 15.3005C22.7524 14.5456 22.1404 13.9336 21.3855 13.9336C20.6305 13.9336 20.0186 14.5456 20.0186 15.3005C20.0186 16.0555 20.6305 16.6675 21.3855 16.6675Z" fill="white"/>
</svg>
