<svg width="56" height="56" viewBox="0 0 56 56" fill="none" xmlns="http://www.w3.org/2000/svg">
<path d="M28 56C43.464 56 56 43.464 56 28C56 12.536 43.464 0 28 0C12.536 0 0 12.536 0 28C0 43.464 12.536 56 28 56Z" fill="#324A5E"/>
<path d="M19.424 30.9977L10.8477 27.9993V16.0166L19.424 19.015V30.9977Z" fill="#FF7058"/>
<path d="M19.424 42.903L10.8477 39.9046V27.9219L19.424 30.9203V42.903Z" fill="#ACB3BA"/>
<path d="M19.4233 31.6498C19.3462 31.6498 19.28 31.6388 19.2029 31.6167L10.6265 28.6183C10.3619 28.5301 10.1855 28.2765 10.1855 28.001V16.0183C10.1855 15.8088 10.2848 15.6104 10.4611 15.4781C10.6375 15.3569 10.858 15.3238 11.0564 15.3899L19.6328 18.3884C19.8973 18.4766 20.0737 18.7301 20.0737 19.0057V30.9884C20.0737 31.1978 19.9745 31.3962 19.7981 31.5285C19.6879 31.6057 19.5556 31.6498 19.4233 31.6498ZM11.4974 27.538L18.7619 30.0734V19.4907L11.4974 16.9553V27.538Z" fill="#324A5E"/>
<path d="M19.4233 43.6331C19.3462 43.6331 19.28 43.6221 19.2029 43.6001L10.6265 40.6017C10.3619 40.5135 10.1855 40.2599 10.1855 39.9843V28.0017C10.1855 27.7922 10.2848 27.5938 10.4611 27.4615C10.6375 27.3403 10.858 27.3072 11.0564 27.3733L19.6328 30.3718C19.8973 30.4599 20.0737 30.7135 20.0737 30.9891V42.9717C20.0737 43.1812 19.9745 43.3796 19.7981 43.5119C19.6879 43.5891 19.5556 43.6331 19.4233 43.6331ZM11.4974 39.5103L18.7619 42.0457V31.4631L11.4974 28.9277V39.5103Z" fill="#324A5E"/>
<path d="M27.9992 33.9857L19.4229 30.9983V19.0156L27.9992 22.0141V33.9857Z" fill="white"/>
<path d="M28.0005 34.6468C27.9233 34.6468 27.8572 34.6358 27.78 34.6138L19.2036 31.6154C18.9391 31.5272 18.7627 31.2736 18.7627 30.998V19.0154C18.7627 18.8059 18.8619 18.6075 19.0383 18.4752C19.2147 18.3539 19.4351 18.3209 19.6336 18.387L28.2099 21.3854C28.4745 21.4736 28.6509 21.7272 28.6509 22.0028V33.9854C28.6509 34.1949 28.5516 34.3933 28.3753 34.5256C28.265 34.6028 28.1327 34.6468 28.0005 34.6468ZM20.0745 30.524L27.339 33.0594V22.4768L20.0745 19.9413V30.524Z" fill="#324A5E"/>
<path d="M27.9992 45.9691L19.4229 42.9707V30.999L27.9992 33.9864V45.9691Z" fill="#FFD05B"/>
<path d="M28.0005 46.6182C27.9233 46.6182 27.8572 46.6072 27.78 46.5852L19.2036 43.5868C18.9391 43.4986 18.7627 43.245 18.7627 42.9694V30.9978C18.7627 30.7883 18.8619 30.5899 19.0383 30.4576C19.2147 30.3364 19.4351 30.3033 19.6336 30.3694L28.2099 33.3679C28.4745 33.456 28.6509 33.7096 28.6509 33.9852V45.9679C28.6509 46.1773 28.5516 46.3757 28.3753 46.508C28.265 46.5852 28.1327 46.6182 28.0005 46.6182ZM20.0745 42.5064L27.339 45.0419V34.4592L20.0745 31.9238V42.5064Z" fill="#324A5E"/>
<path d="M36.5771 30.9977L45.1536 27.9993V16.0166L36.5771 19.015V30.9977Z" fill="white"/>
<path d="M36.5772 31.6485C36.4449 31.6485 36.3126 31.6044 36.2023 31.5273C36.026 31.406 35.9268 31.2076 35.9268 30.9871V19.0155C35.9268 18.7399 36.1031 18.4863 36.3677 18.3981L44.9441 15.3997C45.1425 15.3336 45.363 15.3666 45.5394 15.4879C45.7157 15.6092 45.8149 15.8076 45.8149 16.028V27.9997C45.8149 28.2753 45.6386 28.5288 45.374 28.617L36.7976 31.6154C36.7205 31.6375 36.6543 31.6485 36.5772 31.6485ZM37.2386 19.4784V30.0611L44.5031 27.5257V16.943L37.2386 19.4784Z" fill="#324A5E"/>
<path d="M36.5771 42.9701L45.1536 39.9827V28L36.5771 30.9984V42.9701Z" fill="#FF7058"/>
<path d="M36.5772 43.6316C36.4449 43.6316 36.3126 43.5876 36.2023 43.5104C36.026 43.3891 35.9268 43.1907 35.9268 42.9702V30.9986C35.9268 30.723 36.1031 30.4694 36.3677 30.3812L44.9441 27.3828C45.1425 27.3167 45.363 27.3387 45.5394 27.471C45.7157 27.5922 45.8149 27.7907 45.8149 28.0111V39.9938C45.8149 40.2694 45.6386 40.523 45.374 40.6112L36.7976 43.6096C36.7205 43.6206 36.6543 43.6316 36.5772 43.6316ZM37.2386 31.4615V42.0442L44.5031 39.5088V28.9261L37.2386 31.4615Z" fill="#324A5E"/>
<path d="M28 33.9857L36.5764 30.9983V19.0156L28 22.0141V33.9857Z" fill="#ACB3BA"/>
<path d="M28 34.6465C27.8677 34.6465 27.7354 34.6024 27.6252 34.5253C27.4488 34.404 27.3496 34.2056 27.3496 33.9851V22.0135C27.3496 21.7379 27.526 21.4844 27.7906 21.3962L36.3669 18.3977C36.5654 18.3316 36.7858 18.3647 36.9622 18.4859C37.1386 18.6072 37.2378 18.8056 37.2378 19.0261V31.0087C37.2378 31.2843 37.0614 31.5379 36.7969 31.6261L28.2205 34.6024C28.1433 34.6355 28.0772 34.6465 28 34.6465ZM28.6614 22.4765V33.0591L35.926 30.5237V19.9411L28.6614 22.4765Z" fill="#324A5E"/>
<path d="M28 45.9691L36.5764 42.9707V30.999L28 33.9864V45.9691Z" fill="#84DBFF"/>
<path d="M28 46.6182C27.8677 46.6182 27.7354 46.5742 27.6252 46.497C27.4488 46.3757 27.3496 46.1773 27.3496 45.9568V33.9852C27.3496 33.7096 27.526 33.456 27.7906 33.3679L36.3669 30.3694C36.5654 30.3033 36.7858 30.3364 36.9622 30.4576C37.1386 30.5789 37.2378 30.7773 37.2378 30.9978V42.9805C37.2378 43.256 37.0614 43.5096 36.7969 43.5978L28.2205 46.5852C28.1433 46.6072 28.0772 46.6182 28 46.6182ZM28.6614 34.4592V45.0419L35.926 42.5064V31.9238L28.6614 34.4592Z" fill="#324A5E"/>
<path d="M27.9992 16.0166L19.4229 19.015L27.9992 22.0134L36.5756 19.015L27.9992 16.0166Z" fill="#4CDBC4"/>
<path d="M36.5764 13.0186L28 16.017L36.5764 19.0154L45.1528 16.017L36.5764 13.0186Z" fill="#FFD05B"/>
<path d="M28.0005 22.6639C27.9233 22.6639 27.8572 22.6528 27.78 22.6308L19.2036 19.6324C18.9391 19.5442 18.7627 19.2906 18.7627 19.015C18.7627 18.7394 18.9391 18.4859 19.2036 18.3977L27.78 15.3993C27.9233 15.3552 28.0777 15.3552 28.2099 15.3993L36.7863 18.3977C37.0509 18.4859 37.2273 18.7394 37.2273 19.015C37.2273 19.2906 37.0509 19.5442 36.7863 19.6324L28.221 22.6308C28.1438 22.6528 28.0777 22.6639 28.0005 22.6639ZM21.4084 19.015L28.0005 21.319L34.5926 19.015L28.0005 16.7221L21.4084 19.015Z" fill="#324A5E"/>
<path d="M27.9992 10.0312L19.4229 13.0297L27.9992 16.0171L36.5756 13.0297L27.9992 10.0312Z" fill="white"/>
<path d="M28.0005 16.6775C27.9233 16.6775 27.8572 16.6665 27.78 16.6445L19.2036 13.646C18.9391 13.5578 18.7627 13.3043 18.7627 13.0287C18.7627 12.7531 18.9391 12.4996 19.2036 12.4114L27.78 9.41295C27.9233 9.36886 28.0777 9.36886 28.2099 9.41295L36.7863 12.4114C37.0509 12.4996 37.2273 12.7531 37.2273 13.0287C37.2273 13.3043 37.0509 13.5578 36.7863 13.646L28.221 16.6445C28.1438 16.6665 28.0777 16.6775 28.0005 16.6775ZM21.4084 13.0287L28.0005 15.3216L34.5926 13.0177L28.0005 10.7248L21.4084 13.0287Z" fill="#324A5E"/>
<path d="M19.424 13.0293L10.8477 16.0167L19.424 19.0151L28.0004 16.0167L19.424 13.0293Z" fill="#ACB3BA"/>
<path d="M19.4233 19.6765C19.3462 19.6765 19.28 19.6655 19.2029 19.6435L10.6265 16.645C10.3619 16.5569 10.1855 16.3033 10.1855 16.0277C10.1855 15.7521 10.3619 15.4986 10.6265 15.4104L19.2029 12.412C19.3462 12.3679 19.5005 12.3679 19.6328 12.412L28.2091 15.4104C28.4737 15.4986 28.6501 15.7521 28.6501 16.0277C28.6501 16.3033 28.4737 16.5569 28.2091 16.645L19.6328 19.6435C19.5666 19.6655 19.4895 19.6765 19.4233 19.6765ZM12.8312 16.0167L19.4233 18.3206L26.0154 16.0167L19.4233 13.7128L12.8312 16.0167Z" fill="#324A5E"/>
<path d="M36.5757 19.6765C36.4985 19.6765 36.4324 19.6655 36.3552 19.6435L27.7788 16.645C27.5143 16.5569 27.3379 16.3033 27.3379 16.0277C27.3379 15.7521 27.5143 15.4986 27.7788 15.4104L36.3552 12.412C36.4985 12.3679 36.6528 12.3679 36.7851 12.412L45.3615 15.4104C45.6261 15.4986 45.8024 15.7521 45.8024 16.0277C45.8024 16.3033 45.6261 16.5569 45.3615 16.645L36.7851 19.6435C36.73 19.6655 36.6528 19.6765 36.5757 19.6765ZM29.9946 16.0167L36.5867 18.3206L43.1788 16.0167L36.5867 13.7128L29.9946 16.0167Z" fill="#324A5E"/>
</svg>
