<svg width="56" height="56" viewBox="0 0 56 56" fill="none" xmlns="http://www.w3.org/2000/svg">
<path d="M56 28C56 43.4661 43.4661 56 28 56C12.5339 56 0 43.4661 0 28C0 12.5339 12.5339 0 28 0C40.2142 0 50.5874 7.81575 54.4236 18.7071C55.2504 21.0441 55.7685 23.5134 55.9339 26.0819C55.978 26.7213 56 27.3606 56 28Z" fill="#FD8469"/>
<path d="M43.2895 17.8691H12.71V38.1305H43.2895V17.8691Z" fill="#2B3B4E"/>
<path d="M44.3376 21.5065H11.6636C11.4211 21.5065 11.2227 21.308 11.2227 21.0655V12.8199C11.2227 12.5773 11.4211 12.3789 11.6636 12.3789H44.3266C44.5691 12.3789 44.7675 12.5773 44.7675 12.8199V21.0655C44.7786 21.308 44.5801 21.5065 44.3376 21.5065Z" fill="#324A5E"/>
<path d="M44.3376 32.5631H11.6636C11.4211 32.5631 11.2227 32.3647 11.2227 32.1222V23.8765C11.2227 23.634 11.4211 23.4355 11.6636 23.4355H44.3266C44.5691 23.4355 44.7675 23.634 44.7675 23.8765V32.1222C44.7786 32.3647 44.5801 32.5631 44.3376 32.5631Z" fill="#324A5E"/>
<path d="M44.3376 43.6197H11.6636C11.4211 43.6197 11.2227 43.4213 11.2227 43.1788V34.9331C11.2227 34.6906 11.4211 34.4922 11.6636 34.4922H44.3266C44.5691 34.4922 44.7675 34.6906 44.7675 34.9331V43.1788C44.7786 43.4213 44.5801 43.6197 44.3376 43.6197Z" fill="#324A5E"/>
<path d="M14.7055 18.1004C15.4117 18.1004 15.9842 17.5279 15.9842 16.8217C15.9842 16.1155 15.4117 15.543 14.7055 15.543C13.9993 15.543 13.4268 16.1155 13.4268 16.8217C13.4268 17.5279 13.9993 18.1004 14.7055 18.1004Z" fill="#84DBFF"/>
<path d="M18.2885 18.1004C18.9947 18.1004 19.5672 17.5279 19.5672 16.8217C19.5672 16.1155 18.9947 15.543 18.2885 15.543C17.5823 15.543 17.0098 16.1155 17.0098 16.8217C17.0098 17.5279 17.5823 18.1004 18.2885 18.1004Z" fill="#FFD05B"/>
<path d="M22.1684 18.1004C22.8746 18.1004 23.4471 17.5279 23.4471 16.8217C23.4471 16.1155 22.8746 15.543 22.1684 15.543C21.4622 15.543 20.8896 16.1155 20.8896 16.8217C20.8896 17.5279 21.4622 18.1004 22.1684 18.1004Z" fill="#4CDBC4"/>
<path d="M14.7055 29.2792C15.4117 29.2792 15.9842 28.7066 15.9842 28.0004C15.9842 27.2942 15.4117 26.7217 14.7055 26.7217C13.9993 26.7217 13.4268 27.2942 13.4268 28.0004C13.4268 28.7066 13.9993 29.2792 14.7055 29.2792Z" fill="#84DBFF"/>
<path d="M18.2885 29.2792C18.9947 29.2792 19.5672 28.7066 19.5672 28.0004C19.5672 27.2942 18.9947 26.7217 18.2885 26.7217C17.5823 26.7217 17.0098 27.2942 17.0098 28.0004C17.0098 28.7066 17.5823 29.2792 18.2885 29.2792Z" fill="#FFD05B"/>
<path d="M22.1684 29.2792C22.8746 29.2792 23.4471 28.7066 23.4471 28.0004C23.4471 27.2942 22.8746 26.7217 22.1684 26.7217C21.4622 26.7217 20.8896 27.2942 20.8896 28.0004C20.8896 28.7066 21.4622 29.2792 22.1684 29.2792Z" fill="#4CDBC4"/>
<path d="M14.7055 40.4569C15.4117 40.4569 15.9842 39.8844 15.9842 39.1782C15.9842 38.4719 15.4117 37.8994 14.7055 37.8994C13.9993 37.8994 13.4268 38.4719 13.4268 39.1782C13.4268 39.8844 13.9993 40.4569 14.7055 40.4569Z" fill="#84DBFF"/>
<path d="M18.2885 40.4569C18.9947 40.4569 19.5672 39.8844 19.5672 39.1782C19.5672 38.4719 18.9947 37.8994 18.2885 37.8994C17.5823 37.8994 17.0098 38.4719 17.0098 39.1782C17.0098 39.8844 17.5823 40.4569 18.2885 40.4569Z" fill="#FFD05B"/>
<path d="M22.1684 40.4569C22.8746 40.4569 23.4471 39.8844 23.4471 39.1782C23.4471 38.4719 22.8746 37.8994 22.1684 37.8994C21.4622 37.8994 20.8896 38.4719 20.8896 39.1782C20.8896 39.8844 21.4622 40.4569 22.1684 40.4569Z" fill="#4CDBC4"/>
<path d="M31.7579 17.9347C31.2728 17.9347 30.876 17.5378 30.876 17.0528C30.876 16.5677 31.2728 16.1709 31.7579 16.1709C32.2429 16.1709 32.6398 16.5677 32.6398 17.0528C32.6398 17.5378 32.2429 17.9347 31.7579 17.9347Z" fill="#2B3B4E"/>
<path d="M35.2745 17.9347C34.7894 17.9347 34.3926 17.5378 34.3926 17.0528C34.3926 16.5677 34.7894 16.1709 35.2745 16.1709C35.7595 16.1709 36.1564 16.5677 36.1564 17.0528C36.1453 17.5378 35.7595 17.9347 35.2745 17.9347Z" fill="#2B3B4E"/>
<path d="M38.7813 17.9347C38.2963 17.9347 37.8994 17.5378 37.8994 17.0528C37.8994 16.5677 38.2963 16.1709 38.7813 16.1709C39.2664 16.1709 39.6632 16.5677 39.6632 17.0528C39.6632 17.5378 39.2664 17.9347 38.7813 17.9347Z" fill="#2B3B4E"/>
<path d="M30.0059 16.171C29.5209 16.171 29.124 15.7742 29.124 15.2891C29.124 14.8041 29.5209 14.4072 30.0059 14.4072C30.491 14.4072 30.8878 14.8041 30.8878 15.2891C30.8768 15.7852 30.491 16.171 30.0059 16.171Z" fill="#2B3B4E"/>
<path d="M33.5108 16.171C33.0258 16.171 32.6289 15.7742 32.6289 15.2891C32.6289 14.8041 33.0258 14.4072 33.5108 14.4072C33.9958 14.4072 34.3927 14.8041 34.3927 15.2891C34.3927 15.7852 33.9958 16.171 33.5108 16.171Z" fill="#2B3B4E"/>
<path d="M37.0284 16.171C36.5433 16.171 36.1465 15.7742 36.1465 15.2891C36.1465 14.8041 36.5433 14.4072 37.0284 14.4072C37.5134 14.4072 37.9103 14.8041 37.9103 15.2891C37.9103 15.7852 37.5134 16.171 37.0284 16.171Z" fill="#2B3B4E"/>
<path d="M40.545 16.171C40.0599 16.171 39.6631 15.7742 39.6631 15.2891C39.6631 14.8041 40.0599 14.4072 40.545 14.4072C41.03 14.4072 41.4269 14.8041 41.4269 15.2891C41.4159 15.7852 41.03 16.171 40.545 16.171Z" fill="#2B3B4E"/>
<path d="M30.0059 19.6876C29.5209 19.6876 29.124 19.2908 29.124 18.8057C29.124 18.3207 29.5209 17.9238 30.0059 17.9238C30.491 17.9238 30.8878 18.3207 30.8878 18.8057C30.8768 19.2908 30.491 19.6876 30.0059 19.6876Z" fill="#2B3B4E"/>
<path d="M33.5108 19.6876C33.0258 19.6876 32.6289 19.2908 32.6289 18.8057C32.6289 18.3207 33.0258 17.9238 33.5108 17.9238C33.9958 17.9238 34.3927 18.3207 34.3927 18.8057C34.3927 19.2908 33.9958 19.6876 33.5108 19.6876Z" fill="#2B3B4E"/>
<path d="M37.0284 19.6876C36.5433 19.6876 36.1465 19.2908 36.1465 18.8057C36.1465 18.3207 36.5433 17.9238 37.0284 17.9238C37.5134 17.9238 37.9103 18.3207 37.9103 18.8057C37.9103 19.2908 37.5134 19.6876 37.0284 19.6876Z" fill="#2B3B4E"/>
<path d="M40.545 19.6876C40.0599 19.6876 39.6631 19.2908 39.6631 18.8057C39.6631 18.3207 40.0599 17.9238 40.545 17.9238C41.03 17.9238 41.4269 18.3207 41.4269 18.8057C41.4159 19.2908 41.03 19.6876 40.545 19.6876Z" fill="#2B3B4E"/>
<path d="M31.7579 28.881C31.2728 28.881 30.876 28.4841 30.876 27.9991C30.876 27.514 31.2728 27.1172 31.7579 27.1172C32.2429 27.1172 32.6398 27.514 32.6398 27.9991C32.6398 28.4841 32.2429 28.881 31.7579 28.881Z" fill="#2B3B4E"/>
<path d="M35.2745 28.881C34.7894 28.881 34.3926 28.4841 34.3926 27.9991C34.3926 27.514 34.7894 27.1172 35.2745 27.1172C35.7595 27.1172 36.1564 27.514 36.1564 27.9991C36.1453 28.4841 35.7595 28.881 35.2745 28.881Z" fill="#2B3B4E"/>
<path d="M38.7813 28.881C38.2963 28.881 37.8994 28.4841 37.8994 27.9991C37.8994 27.514 38.2963 27.1172 38.7813 27.1172C39.2664 27.1172 39.6632 27.514 39.6632 27.9991C39.6632 28.4841 39.2664 28.881 38.7813 28.881Z" fill="#2B3B4E"/>
<path d="M30.0059 27.1173C29.5209 27.1173 29.124 26.7204 29.124 26.2354C29.124 25.7504 29.5209 25.3535 30.0059 25.3535C30.491 25.3535 30.8878 25.7504 30.8878 26.2354C30.8768 26.7315 30.491 27.1173 30.0059 27.1173Z" fill="#2B3B4E"/>
<path d="M33.5108 27.1173C33.0258 27.1173 32.6289 26.7204 32.6289 26.2354C32.6289 25.7504 33.0258 25.3535 33.5108 25.3535C33.9958 25.3535 34.3927 25.7504 34.3927 26.2354C34.3927 26.7315 33.9958 27.1173 33.5108 27.1173Z" fill="#2B3B4E"/>
<path d="M37.0284 27.1173C36.5433 27.1173 36.1465 26.7204 36.1465 26.2354C36.1465 25.7504 36.5433 25.3535 37.0284 25.3535C37.5134 25.3535 37.9103 25.7504 37.9103 26.2354C37.9103 26.7315 37.5134 27.1173 37.0284 27.1173Z" fill="#2B3B4E"/>
<path d="M40.545 27.1173C40.0599 27.1173 39.6631 26.7204 39.6631 26.2354C39.6631 25.7504 40.0599 25.3535 40.545 25.3535C41.03 25.3535 41.4269 25.7504 41.4269 26.2354C41.4159 26.7315 41.03 27.1173 40.545 27.1173Z" fill="#2B3B4E"/>
<path d="M30.0059 30.6339C29.5209 30.6339 29.124 30.237 29.124 29.752C29.124 29.267 29.5209 28.8701 30.0059 28.8701C30.491 28.8701 30.8878 29.267 30.8878 29.752C30.8768 30.237 30.491 30.6339 30.0059 30.6339Z" fill="#2B3B4E"/>
<path d="M33.5108 30.6339C33.0258 30.6339 32.6289 30.237 32.6289 29.752C32.6289 29.267 33.0258 28.8701 33.5108 28.8701C33.9958 28.8701 34.3927 29.267 34.3927 29.752C34.3927 30.237 33.9958 30.6339 33.5108 30.6339Z" fill="#2B3B4E"/>
<path d="M37.0284 30.6339C36.5433 30.6339 36.1465 30.237 36.1465 29.752C36.1465 29.267 36.5433 28.8701 37.0284 28.8701C37.5134 28.8701 37.9103 29.267 37.9103 29.752C37.9103 30.237 37.5134 30.6339 37.0284 30.6339Z" fill="#2B3B4E"/>
<path d="M40.545 30.6339C40.0599 30.6339 39.6631 30.237 39.6631 29.752C39.6631 29.267 40.0599 28.8701 40.545 28.8701C41.03 28.8701 41.4269 29.267 41.4269 29.752C41.4159 30.237 41.03 30.6339 40.545 30.6339Z" fill="#2B3B4E"/>
<path d="M31.7579 39.8273C31.2728 39.8273 30.876 39.4304 30.876 38.9454C30.876 38.4603 31.2728 38.0635 31.7579 38.0635C32.2429 38.0635 32.6398 38.4603 32.6398 38.9454C32.6398 39.4304 32.2429 39.8273 31.7579 39.8273Z" fill="#2B3B4E"/>
<path d="M35.2745 39.8273C34.7894 39.8273 34.3926 39.4304 34.3926 38.9454C34.3926 38.4603 34.7894 38.0635 35.2745 38.0635C35.7595 38.0635 36.1564 38.4603 36.1564 38.9454C36.1453 39.4304 35.7595 39.8273 35.2745 39.8273Z" fill="#2B3B4E"/>
<path d="M38.7813 39.8273C38.2963 39.8273 37.8994 39.4304 37.8994 38.9454C37.8994 38.4603 38.2963 38.0635 38.7813 38.0635C39.2664 38.0635 39.6632 38.4603 39.6632 38.9454C39.6632 39.4304 39.2664 39.8273 38.7813 39.8273Z" fill="#2B3B4E"/>
<path d="M30.0059 38.0636C29.5209 38.0636 29.124 37.6667 29.124 37.1817C29.124 36.6967 29.5209 36.2998 30.0059 36.2998C30.491 36.2998 30.8878 36.6967 30.8878 37.1817C30.8768 37.6778 30.491 38.0636 30.0059 38.0636Z" fill="#2B3B4E"/>
<path d="M33.5108 38.0636C33.0258 38.0636 32.6289 37.6667 32.6289 37.1817C32.6289 36.6967 33.0258 36.2998 33.5108 36.2998C33.9958 36.2998 34.3927 36.6967 34.3927 37.1817C34.3927 37.6778 33.9958 38.0636 33.5108 38.0636Z" fill="#2B3B4E"/>
<path d="M37.0284 38.0636C36.5433 38.0636 36.1465 37.6667 36.1465 37.1817C36.1465 36.6967 36.5433 36.2998 37.0284 36.2998C37.5134 36.2998 37.9103 36.6967 37.9103 37.1817C37.9103 37.6778 37.5134 38.0636 37.0284 38.0636Z" fill="#2B3B4E"/>
<path d="M40.545 38.0636C40.0599 38.0636 39.6631 37.6667 39.6631 37.1817C39.6631 36.6967 40.0599 36.2998 40.545 36.2998C41.03 36.2998 41.4269 36.6967 41.4269 37.1817C41.4159 37.6778 41.03 38.0636 40.545 38.0636Z" fill="#2B3B4E"/>
<path d="M30.0059 41.5802C29.5209 41.5802 29.124 41.1833 29.124 40.6983C29.124 40.2133 29.5209 39.8164 30.0059 39.8164C30.491 39.8164 30.8878 40.2133 30.8878 40.6983C30.8768 41.1833 30.491 41.5802 30.0059 41.5802Z" fill="#2B3B4E"/>
<path d="M33.5108 41.5802C33.0258 41.5802 32.6289 41.1833 32.6289 40.6983C32.6289 40.2133 33.0258 39.8164 33.5108 39.8164C33.9958 39.8164 34.3927 40.2133 34.3927 40.6983C34.3927 41.1833 33.9958 41.5802 33.5108 41.5802Z" fill="#2B3B4E"/>
<path d="M37.0284 41.5802C36.5433 41.5802 36.1465 41.1833 36.1465 40.6983C36.1465 40.2133 36.5433 39.8164 37.0284 39.8164C37.5134 39.8164 37.9103 40.2133 37.9103 40.6983C37.9103 41.1833 37.5134 41.5802 37.0284 41.5802Z" fill="#2B3B4E"/>
<path d="M40.545 41.5802C40.0599 41.5802 39.6631 41.1833 39.6631 40.6983C39.6631 40.2133 40.0599 39.8164 40.545 39.8164C41.03 39.8164 41.4269 40.2133 41.4269 40.6983C41.4159 41.1833 41.03 41.5802 40.545 41.5802Z" fill="#2B3B4E"/>
</svg>
