<svg width="56" height="56" viewBox="0 0 56 56" fill="none" xmlns="http://www.w3.org/2000/svg">
<g clip-path="url(#clip0_1072_3425)">
<path d="M47.3624 55.9999H8.83356C5.80727 55.9995 2.99678 54.4326 1.40517 51.858C-0.186023 49.2838 -0.331026 46.069 1.02176 43.3617L20.2845 4.83114C21.7631 1.87053 24.7885 0 28.098 0C31.4075 0 34.4329 1.87053 35.9115 4.83114L55.1742 43.3617C56.527 46.069 56.382 49.2838 54.7908 51.858C53.1996 54.4326 50.3887 55.9995 47.3624 55.9999Z" fill="#FF7761"/>
<path d="M28.0984 13.9971C29.0631 13.9971 29.8453 14.7792 29.8453 15.7439V36.7061C29.8453 37.6708 29.0631 38.453 28.0984 38.453C27.1337 38.453 26.3516 37.6708 26.3516 36.7061V15.7439C26.3516 14.7792 27.1337 13.9971 28.0984 13.9971Z" fill="white"/>
<path d="M26.3516 41.9473H29.8453V45.441H26.3516V41.9473Z" fill="white"/>
</g>
<defs>
<clipPath id="clip0_1072_3425">
<rect width="56" height="56" fill="white"/>
</clipPath>
</defs>
</svg>
