<svg width="56" height="56" viewBox="0 0 56 56" fill="none" xmlns="http://www.w3.org/2000/svg">
<path d="M28 56C43.464 56 56 43.464 56 28C56 12.536 43.464 0 28 0C12.536 0 0 12.536 0 28C0 43.464 12.536 56 28 56Z" fill="#979797" fill-opacity="0.4"/>
<path d="M25.4094 32.0571C20.6252 32.0571 16.7559 28.1878 16.7559 23.4035C16.7559 18.6193 20.6252 14.75 25.4094 14.75C30.1937 14.75 34.063 18.6193 34.063 23.4035C34.063 28.1878 30.1937 32.0571 25.4094 32.0571Z" fill="#979797"/>
<path d="M11.2998 9.43652H14.2431V16.7011H12.6778V10.8145H11.2998V9.43652Z" fill="#F5F5F5"/>
<path d="M18.7516 16.7896C17.7485 16.7896 16.9989 16.4479 16.4918 15.7644C15.9957 15.0809 15.7422 14.166 15.7422 13.0305C15.7422 11.8951 15.9957 10.9801 16.4918 10.2967C16.9879 9.61322 17.7375 9.27148 18.7516 9.27148C19.7548 9.27148 20.5044 9.61322 21.0115 10.2967C21.5075 10.9801 21.7611 11.8951 21.7611 13.0305C21.7611 14.166 21.5075 15.0809 21.0115 15.7644C20.5154 16.4479 19.7548 16.7896 18.7516 16.7896ZM17.6823 11.2778C17.4508 11.7187 17.3406 12.303 17.3406 13.0305C17.3406 13.7581 17.4508 14.3424 17.6823 14.7833C17.9138 15.2242 18.2666 15.4447 18.7516 15.4447C19.2367 15.4447 19.5894 15.2242 19.8209 14.7833C20.0524 14.3424 20.1627 13.7581 20.1627 13.0305C20.1627 12.303 20.0524 11.7187 19.8209 11.2778C19.5894 10.8368 19.2367 10.6164 18.7516 10.6164C18.2666 10.6164 17.9138 10.8368 17.6823 11.2778Z" fill="#F5F5F5"/>
<path d="M25.9284 16.7896C24.9252 16.7896 24.1756 16.4479 23.6686 15.7644C23.1725 15.0809 22.9189 14.166 22.9189 13.0305C22.9189 11.8951 23.1725 10.9801 23.6686 10.2967C24.1646 9.61322 24.9142 9.27148 25.9284 9.27148C26.9315 9.27148 27.6811 9.61322 28.1882 10.2967C28.6843 10.9801 28.9378 11.8951 28.9378 13.0305C28.9378 14.166 28.6843 15.0809 28.1882 15.7644C27.6811 16.4479 26.9315 16.7896 25.9284 16.7896ZM24.8591 11.2778C24.6276 11.7187 24.5174 12.303 24.5174 13.0305C24.5174 13.7581 24.6276 14.3424 24.8591 14.7833C25.0906 15.2242 25.4434 15.4447 25.9284 15.4447C26.4134 15.4447 26.7662 15.2242 26.9977 14.7833C27.2292 14.3424 27.3394 13.7581 27.3394 13.0305C27.3394 12.303 27.2292 11.7187 26.9977 11.2778C26.7662 10.8368 26.4134 10.6164 25.9284 10.6164C25.4434 10.6164 25.0906 10.8368 24.8591 11.2778Z" fill="#F5F5F5"/>
<path d="M29.8418 9.43652H32.7851V16.7011H31.2308V10.8145H29.8528V9.43652H29.8418Z" fill="#F5F5F5"/>
<path d="M37.2936 16.7896C36.2905 16.7896 35.5409 16.4479 35.0338 15.7644C34.5377 15.0809 34.2842 14.166 34.2842 13.0305C34.2842 11.8951 34.5377 10.9801 35.0338 10.2967C35.5298 9.61322 36.2794 9.27148 37.2936 9.27148C38.2968 9.27148 39.0464 9.61322 39.5535 10.2967C40.0495 10.9801 40.3031 11.8951 40.3031 13.0305C40.3031 14.166 40.0495 15.0809 39.5535 15.7644C39.0464 16.4479 38.2968 16.7896 37.2936 16.7896ZM36.2243 11.2778C35.9928 11.7187 35.8826 12.303 35.8826 13.0305C35.8826 13.7581 35.9928 14.3424 36.2243 14.7833C36.4558 15.2242 36.8086 15.4447 37.2936 15.4447C37.7787 15.4447 38.1314 15.2242 38.3629 14.7833C38.5944 14.3424 38.7046 13.7581 38.7046 13.0305C38.7046 12.303 38.5944 11.7187 38.3629 11.2778C38.1314 10.8368 37.7787 10.6164 37.2936 10.6164C36.8086 10.6164 36.4558 10.8368 36.2243 11.2778Z" fill="#F5F5F5"/>
<path d="M11.2998 21.915H14.2431V29.1796H12.6778V23.293H11.2998V21.915Z" fill="#F5F5F5"/>
<path d="M18.7516 29.2681C17.7485 29.2681 16.9989 28.9264 16.4918 28.2429C15.9957 27.5594 15.7422 26.6445 15.7422 25.5091C15.7422 24.3736 15.9957 23.4587 16.4918 22.7752C16.9879 22.0917 17.7375 21.75 18.7516 21.75C19.7548 21.75 20.5044 22.0917 21.0115 22.7752C21.5075 23.4587 21.7611 24.3736 21.7611 25.5091C21.7611 26.6445 21.5075 27.5594 21.0115 28.2429C20.5154 28.9264 19.7548 29.2681 18.7516 29.2681ZM17.6823 23.7563C17.4508 24.1972 17.3406 24.7815 17.3406 25.5091C17.3406 26.2366 17.4508 26.8209 17.6823 27.2618C17.9138 27.7028 18.2666 27.9232 18.7516 27.9232C19.2367 27.9232 19.5894 27.7028 19.8209 27.2618C20.0524 26.8209 20.1627 26.2366 20.1627 25.5091C20.1627 24.7815 20.0524 24.1972 19.8209 23.7563C19.5894 23.3154 19.2367 23.0949 18.7516 23.0949C18.2666 23.0839 17.9138 23.3154 17.6823 23.7563Z" fill="#F5F5F5"/>
<path d="M22.665 21.915H25.6083V29.1796H24.054V23.293H22.6761V21.915H22.665Z" fill="#F5F5F5"/>
<path d="M26.8545 21.915H29.7978V29.1796H28.2435V23.293H26.8655V21.915H26.8545Z" fill="#F5F5F5"/>
<path d="M34.3063 29.2681C33.3032 29.2681 32.5536 28.9264 32.0465 28.2429C31.5504 27.5594 31.2969 26.6445 31.2969 25.5091C31.2969 24.3736 31.5504 23.4587 32.0465 22.7752C32.5425 22.0917 33.2921 21.75 34.3063 21.75C35.3095 21.75 36.0591 22.0917 36.5662 22.7752C37.0622 23.4587 37.3158 24.3736 37.3158 25.5091C37.3158 26.6445 37.0622 27.5594 36.5662 28.2429C36.0701 28.9264 35.3095 29.2681 34.3063 29.2681ZM33.237 23.7563C33.0055 24.1972 32.8953 24.7815 32.8953 25.5091C32.8953 26.2366 33.0055 26.8209 33.237 27.2618C33.4685 27.7028 33.8213 27.9232 34.3063 27.9232C34.7914 27.9232 35.1441 27.7028 35.3756 27.2618C35.6071 26.8209 35.7173 26.2366 35.7173 25.5091C35.7173 24.7815 35.6071 24.1972 35.3756 23.7563C35.1441 23.3154 34.7914 23.0949 34.3063 23.0949C33.8213 23.0839 33.4685 23.3154 33.237 23.7563Z" fill="#F5F5F5"/>
<path d="M11.2998 34.3945H14.2431V41.6591H12.6778V35.7725H11.2998V34.3945Z" fill="#F5F5F5"/>
<path d="M18.7516 41.7476C17.7485 41.7476 16.9989 41.4059 16.4918 40.7224C15.9957 40.0389 15.7422 39.124 15.7422 37.9885C15.7422 36.8531 15.9957 35.9382 16.4918 35.2547C16.9879 34.5712 17.7375 34.2295 18.7516 34.2295C19.7548 34.2295 20.5044 34.5712 21.0115 35.2547C21.5075 35.9382 21.7611 36.8531 21.7611 37.9885C21.7611 39.124 21.5075 40.0389 21.0115 40.7224C20.5154 41.4059 19.7548 41.7476 18.7516 41.7476ZM17.6823 36.2358C17.4508 36.6767 17.3406 37.261 17.3406 37.9885C17.3406 38.7161 17.4508 39.3004 17.6823 39.7413C17.9138 40.1822 18.2666 40.4027 18.7516 40.4027C19.2367 40.4027 19.5894 40.1822 19.8209 39.7413C20.0524 39.3004 20.1627 38.7161 20.1627 37.9885C20.1627 37.261 20.0524 36.6767 19.8209 36.2358C19.5894 35.7948 19.2367 35.5744 18.7516 35.5744C18.2666 35.5634 17.9138 35.7948 17.6823 36.2358Z" fill="#F5F5F5"/>
<path d="M25.9284 41.7476C24.9252 41.7476 24.1756 41.4059 23.6686 40.7224C23.1725 40.0389 22.9189 39.124 22.9189 37.9885C22.9189 36.8531 23.1725 35.9382 23.6686 35.2547C24.1646 34.5712 24.9142 34.2295 25.9284 34.2295C26.9315 34.2295 27.6811 34.5712 28.1882 35.2547C28.6843 35.9382 28.9378 36.8531 28.9378 37.9885C28.9378 39.124 28.6843 40.0389 28.1882 40.7224C27.6811 41.4059 26.9315 41.7476 25.9284 41.7476ZM24.8591 36.2358C24.6276 36.6767 24.5174 37.261 24.5174 37.9885C24.5174 38.7161 24.6276 39.3004 24.8591 39.7413C25.0906 40.1822 25.4434 40.4027 25.9284 40.4027C26.4134 40.4027 26.7662 40.1822 26.9977 39.7413C27.2292 39.3004 27.3394 38.7161 27.3394 37.9885C27.3394 37.261 27.2292 36.6767 26.9977 36.2358C26.7662 35.7948 26.4134 35.5744 25.9284 35.5744C25.4434 35.5634 25.0906 35.7948 24.8591 36.2358Z" fill="#F5F5F5"/>
<path d="M29.8418 34.3945H32.7851V41.6591H31.2308V35.7725H29.8528V34.3945H29.8418Z" fill="#F5F5F5"/>
<path d="M37.2936 41.7476C36.2905 41.7476 35.5409 41.4059 35.0338 40.7224C34.5377 40.0389 34.2842 39.124 34.2842 37.9885C34.2842 36.8531 34.5377 35.9382 35.0338 35.2547C35.5298 34.5712 36.2794 34.2295 37.2936 34.2295C38.2968 34.2295 39.0464 34.5712 39.5535 35.2547C40.0495 35.9382 40.3031 36.8531 40.3031 37.9885C40.3031 39.124 40.0495 40.0389 39.5535 40.7224C39.0464 41.4059 38.2968 41.7476 37.2936 41.7476ZM36.2243 36.2358C35.9928 36.6767 35.8826 37.261 35.8826 37.9885C35.8826 38.7161 35.9928 39.3004 36.2243 39.7413C36.4558 40.1822 36.8086 40.4027 37.2936 40.4027C37.7787 40.4027 38.1314 40.1822 38.3629 39.7413C38.5944 39.3004 38.7046 38.7161 38.7046 37.9885C38.7046 37.261 38.5944 36.6767 38.3629 36.2358C38.1314 35.7948 37.7787 35.5744 37.2936 35.5744C36.8086 35.5634 36.4558 35.7948 36.2243 36.2358Z" fill="#F5F5F5"/>
<path d="M30.7887 28.7828C30.3257 29.2458 30.3257 30.0064 30.7887 30.4804L34.669 34.3608C35.132 34.8237 35.8926 34.8237 36.3666 34.3608C36.8296 33.8978 36.8296 33.1371 36.3666 32.6631L32.4863 28.7828C32.0123 28.3198 31.2627 28.3198 30.7887 28.7828Z" fill="black"/>
<path d="M25.4103 33.7758C31.1393 33.7758 35.7836 29.1315 35.7836 23.4025C35.7836 17.6736 31.1393 13.0293 25.4103 13.0293C19.6814 13.0293 15.0371 17.6736 15.0371 23.4025C15.0371 29.1315 19.6814 33.7758 25.4103 33.7758Z" fill="#979797"/>
<path d="M25.4095 31.2966C29.7687 31.2966 33.3024 27.7628 33.3024 23.4036C33.3024 19.0445 29.7687 15.5107 25.4095 15.5107C21.0504 15.5107 17.5166 19.0445 17.5166 23.4036C17.5166 27.7628 21.0504 31.2966 25.4095 31.2966Z" fill="#979797" fill-opacity="0.4"/>
<path d="M36.609 30.8771L32.883 34.6031C32.7838 34.7023 32.7838 34.8677 32.883 34.9669L42.3854 44.4693C42.4846 44.5685 42.6499 44.5685 42.7491 44.4693L46.4751 40.7433C46.5743 40.6441 46.5743 40.4787 46.4751 40.3795L36.9728 30.8771C36.8735 30.7779 36.7082 30.7779 36.609 30.8771Z" fill="black"/>
<path d="M34.2012 36.2959L41.0527 43.1475L45.1449 39.0553L38.2934 32.2037L34.2012 36.2959Z" fill="white"/>
<path d="M19.0383 18.7627C18.5643 19.4021 18.2116 20.1076 17.958 20.8351H19.0714V28.0887C19.3029 28.4084 19.5564 28.706 19.843 28.9816C20.0745 29.2131 20.3281 29.4446 20.5927 29.643H21.4084V18.7737H19.0383V18.7627Z" fill="#F5F5F5"/>
<path d="M23.2715 18.7627V20.8351H25.3329V29.643H27.6699V18.7737H23.2715V18.7627Z" fill="#F5F5F5"/>
<path d="M32.8179 21.5188C32.4761 22.1802 32.3108 23.0621 32.3108 24.1535C32.3108 25.0905 32.4431 25.8621 32.6966 26.4905C32.3769 27.2511 31.936 27.9566 31.3628 28.607C31.2525 28.4968 31.1533 28.3755 31.0541 28.2432C30.3045 27.229 29.9297 25.8621 29.9297 24.1535C29.9297 22.4558 30.3045 21.0889 31.0541 20.0637C31.3297 19.6779 31.6714 19.3802 32.0462 19.1377C32.4761 19.7991 32.7958 20.5046 33.0053 21.2322C32.9281 21.3094 32.873 21.4196 32.8179 21.5188Z" fill="#F5F5F5"/>
</svg>
